<?xml version="1.0" encoding="UTF-8" standalone="no"?>
<!DOCTYPE svg PUBLIC "-//W3C//DTD SVG 1.1//EN"
 "http://www.w3.org/Graphics/SVG/1.1/DTD/svg11.dtd">
<!-- Generated by graphviz version 10.0.1 (0)
 -->
<!-- Title: input_string Pages: 1 -->
<svg width="598pt" height="98pt"
 viewBox="0.00 0.00 598.00 98.25" xmlns="http://www.w3.org/2000/svg" xmlns:xlink="http://www.w3.org/1999/xlink">
<g id="graph0" class="graph" transform="scale(1 1) rotate(0) translate(4 94.25)">
<title>input_string</title>
<g id="clust1" class="cluster">
<title>cluster_input</title>
<polygon fill="lightblue" stroke="lightblue" points="8,-8 8,-82.25 582,-82.25 582,-8 8,-8"/>
<text text-anchor="middle" x="295" y="-66.85" font-family="HackNerdFont" font-size="12.00">Input String</text>
</g>
<!-- h -->
<g id="node1" class="node">
<title>h</title>
<polygon fill="white" stroke="none" points="70,-52 16,-52 16,-16 70,-16 70,-52"/>
<text text-anchor="middle" x="43" y="-29.73" font-family="HackNerdFont" font-size="12.00">h</text>
</g>
<!-- u -->
<g id="node2" class="node">
<title>u</title>
<polygon fill="white" stroke="none" points="142,-52 88,-52 88,-16 142,-16 142,-52"/>
<text text-anchor="middle" x="115" y="-29.73" font-family="HackNerdFont" font-size="12.00">u</text>
</g>
<!-- f -->
<g id="node3" class="node">
<title>f</title>
<polygon fill="white" stroke="none" points="214,-52 160,-52 160,-16 214,-16 214,-52"/>
<text text-anchor="middle" x="187" y="-29.73" font-family="HackNerdFont" font-size="12.00">f</text>
</g>
<!-- f2 -->
<g id="node4" class="node">
<title>f2</title>
<polygon fill="white" stroke="none" points="286,-52 232,-52 232,-16 286,-16 286,-52"/>
<text text-anchor="middle" x="259" y="-29.73" font-family="HackNerdFont" font-size="12.00">f</text>
</g>
<!-- b -->
<g id="node5" class="node">
<title>b</title>
<polygon fill="white" stroke="none" points="358,-52 304,-52 304,-16 358,-16 358,-52"/>
<text text-anchor="middle" x="331" y="-29.73" font-family="HackNerdFont" font-size="12.00">b</text>
</g>
<!-- i -->
<g id="node6" class="node">
<title>i</title>
<polygon fill="white" stroke="none" points="430,-52 376,-52 376,-16 430,-16 430,-52"/>
<text text-anchor="middle" x="403" y="-29.73" font-family="HackNerdFont" font-size="12.00">i</text>
</g>
<!-- t -->
<g id="node7" class="node">
<title>t</title>
<polygon fill="white" stroke="none" points="502,-52 448,-52 448,-16 502,-16 502,-52"/>
<text text-anchor="middle" x="475" y="-29.73" font-family="HackNerdFont" font-size="12.00">t</text>
</g>
<!-- newline -->
<g id="node8" class="node">
<title>newline</title>
<polygon fill="white" stroke="none" points="574,-52 520,-52 520,-16 574,-16 574,-52"/>
<text text-anchor="middle" x="547" y="-29.73" font-family="HackNerdFont" font-size="12.00">\n</text>
</g>
</g>
</svg>
