<?xml version="1.0" encoding="UTF-8" standalone="no"?>
<!DOCTYPE svg PUBLIC "-//W3C//DTD SVG 1.1//EN"
 "http://www.w3.org/Graphics/SVG/1.1/DTD/svg11.dtd">
<!-- Generated by graphviz version 10.0.1 (0)
 -->
<!-- Title: output_string Pages: 1 -->
<svg width="1405pt" height="196pt"
 viewBox="0.00 0.00 1405.00 195.50" xmlns="http://www.w3.org/2000/svg" xmlns:xlink="http://www.w3.org/1999/xlink">
<g id="graph0" class="graph" transform="scale(1 1) rotate(0) translate(4 191.5)">
<title>output_string</title>
<g id="clust1" class="cluster">
<title>cluster_input</title>
<polygon fill="lightblue" stroke="lightblue" points="361,-97.75 361,-179.5 761,-179.5 761,-97.75 361,-97.75"/>
<text text-anchor="middle" x="561" y="-158.4" font-family="HackNerdFont" font-size="18.00">Input String</text>
</g>
<g id="clust2" class="cluster">
<title>cluster_byte1</title>
<polygon fill="lightblue" stroke="lightblue" points="8,-8 8,-89.75 463,-89.75 463,-8 8,-8"/>
<text text-anchor="middle" x="235.5" y="-68.65" font-family="HackNerdFont" font-size="18.00">byte 1</text>
</g>
<g id="clust3" class="cluster">
<title>cluster_byte2</title>
<polygon fill="lightblue" stroke="lightblue" points="471,-8 471,-89.75 926,-89.75 926,-8 471,-8"/>
<text text-anchor="middle" x="698.5" y="-68.65" font-family="HackNerdFont" font-size="18.00">byte 2</text>
</g>
<g id="clust4" class="cluster">
<title>cluster_byte3</title>
<polygon fill="lightblue" stroke="lightblue" points="934,-8 934,-89.75 1389,-89.75 1389,-8 934,-8"/>
<text text-anchor="middle" x="1161.5" y="-68.65" font-family="HackNerdFont" font-size="18.00">byte 3</text>
</g>
<!-- h -->
<g id="node1" class="node">
<title>h</title>
<polygon fill="white" stroke="none" points="423,-141.75 369,-141.75 369,-105.75 423,-105.75 423,-141.75"/>
<text text-anchor="middle" x="396" y="-116.75" font-family="HackNerdFont" font-size="20.00">h</text>
</g>
<!-- by1b1 -->
<g id="node8" class="node">
<title>by1b1</title>
<polygon fill="white" stroke="white" points="70,-52 16,-52 16,-16 70,-16 70,-52"/>
<text text-anchor="middle" x="43" y="-27" font-family="HackNerdFont" font-size="20.00">1</text>
</g>
<!-- h&#45;&gt;by1b1 -->
<g id="edge1" class="edge">
<title>h&#45;&gt;by1b1</title>
<path fill="none" stroke="black" d="M369.18,-132C286.8,-132 43,-132 43,-132 43,-132 43,-63.95 43,-63.95"/>
<polygon fill="black" stroke="black" points="46.5,-63.95 43,-53.95 39.5,-63.95 46.5,-63.95"/>
</g>
<!-- by1b2 -->
<g id="node9" class="node">
<title>by1b2</title>
<polygon fill="white" stroke="white" points="125,-52 71,-52 71,-16 125,-16 125,-52"/>
<text text-anchor="middle" x="98" y="-27" font-family="HackNerdFont" font-size="20.00">0</text>
</g>
<!-- h&#45;&gt;by1b2 -->
<g id="edge2" class="edge">
<title>h&#45;&gt;by1b2</title>
<path fill="none" stroke="black" d="M369.03,-123C295.67,-123 98,-123 98,-123 98,-123 98,-63.95 98,-63.95"/>
<polygon fill="black" stroke="black" points="101.5,-63.95 98,-53.95 94.5,-63.95 101.5,-63.95"/>
</g>
<!-- by1b3 -->
<g id="node10" class="node">
<title>by1b3</title>
<polygon fill="white" stroke="white" points="180,-52 126,-52 126,-16 180,-16 180,-52"/>
<text text-anchor="middle" x="153" y="-27" font-family="HackNerdFont" font-size="20.00">1</text>
</g>
<!-- h&#45;&gt;by1b3 -->
<g id="edge3" class="edge">
<title>h&#45;&gt;by1b3</title>
<path fill="none" stroke="black" d="M369.07,-114C305.8,-114 153,-114 153,-114 153,-114 153,-63.67 153,-63.67"/>
<polygon fill="black" stroke="black" points="156.5,-63.67 153,-53.67 149.5,-63.67 156.5,-63.67"/>
</g>
<!-- u -->
<g id="node2" class="node">
<title>u</title>
<polygon fill="white" stroke="none" points="478,-141.75 424,-141.75 424,-105.75 478,-105.75 478,-141.75"/>
<text text-anchor="middle" x="451" y="-116.75" font-family="HackNerdFont" font-size="20.00">u</text>
</g>
<!-- by1b4 -->
<g id="node11" class="node">
<title>by1b4</title>
<polygon fill="white" stroke="white" points="235,-52 181,-52 181,-16 235,-16 235,-52"/>
<text text-anchor="middle" x="208" y="-27" font-family="HackNerdFont" font-size="20.00">1</text>
</g>
<!-- u&#45;&gt;by1b4 -->
<g id="edge4" class="edge">
<title>u&#45;&gt;by1b4</title>
<path fill="none" stroke="black" d="M430.2,-105.82C430.2,-103.01 430.2,-101 430.2,-101 430.2,-101 208,-101 208,-101 208,-101 208,-63.82 208,-63.82"/>
<polygon fill="black" stroke="black" points="211.5,-63.82 208,-53.82 204.5,-63.82 211.5,-63.82"/>
</g>
<!-- by1b5 -->
<g id="node12" class="node">
<title>by1b5</title>
<polygon fill="white" stroke="white" points="290,-52 236,-52 236,-16 290,-16 290,-52"/>
<text text-anchor="middle" x="263" y="-27" font-family="HackNerdFont" font-size="20.00">1</text>
</g>
<!-- u&#45;&gt;by1b5 -->
<g id="edge5" class="edge">
<title>u&#45;&gt;by1b5</title>
<path fill="none" stroke="black" d="M436.4,-106.02C436.4,-98.75 436.4,-92 436.4,-92 436.4,-92 263,-92 263,-92 263,-92 263,-63.87 263,-63.87"/>
<polygon fill="black" stroke="black" points="266.5,-63.87 263,-53.87 259.5,-63.87 266.5,-63.87"/>
</g>
<!-- by1b6 -->
<g id="node13" class="node">
<title>by1b6</title>
<polygon fill="white" stroke="white" points="345,-52 291,-52 291,-16 345,-16 345,-52"/>
<text text-anchor="middle" x="318" y="-27" font-family="HackNerdFont" font-size="20.00">1</text>
</g>
<!-- u&#45;&gt;by1b6 -->
<g id="edge6" class="edge">
<title>u&#45;&gt;by1b6</title>
<path fill="none" stroke="black" d="M442.6,-105.76C442.6,-94.84 442.6,-83 442.6,-83 442.6,-83 318,-83 318,-83 318,-83 318,-63.76 318,-63.76"/>
<polygon fill="black" stroke="black" points="321.5,-63.76 318,-53.76 314.5,-63.76 321.5,-63.76"/>
</g>
<!-- f -->
<g id="node3" class="node">
<title>f</title>
<polygon fill="white" stroke="none" points="533,-141.75 479,-141.75 479,-105.75 533,-105.75 533,-141.75"/>
<text text-anchor="middle" x="506" y="-116.75" font-family="HackNerdFont" font-size="20.00">f</text>
</g>
<!-- by1b7 -->
<g id="node14" class="node">
<title>by1b7</title>
<polygon fill="white" stroke="white" points="400,-52 346,-52 346,-16 400,-16 400,-52"/>
<text text-anchor="middle" x="373" y="-27" font-family="HackNerdFont" font-size="20.00">0</text>
</g>
<!-- f&#45;&gt;by1b7 -->
<g id="edge7" class="edge">
<title>f&#45;&gt;by1b7</title>
<path fill="none" stroke="black" d="M492.5,-105.93C492.5,-93.09 492.5,-78 492.5,-78 492.5,-78 384.5,-78 384.5,-78 384.5,-78 384.5,-63.92 384.5,-63.92"/>
<polygon fill="black" stroke="black" points="388,-63.92 384.5,-53.92 381,-63.92 388,-63.92"/>
</g>
<!-- by1b8 -->
<g id="node15" class="node">
<title>by1b8</title>
<polygon fill="white" stroke="white" points="455,-52 401,-52 401,-16 455,-16 455,-52"/>
<text text-anchor="middle" x="428" y="-27" font-family="HackNerdFont" font-size="20.00">0</text>
</g>
<!-- f&#45;&gt;by1b8 -->
<g id="edge8" class="edge">
<title>f&#45;&gt;by1b8</title>
<path fill="none" stroke="black" d="M506,-105.8C506,-88.53 506,-65 506,-65 506,-65 448.8,-65 448.8,-65 448.8,-65 448.8,-63.74 448.8,-63.74"/>
<polygon fill="black" stroke="black" points="452.3,-63.9 448.8,-53.9 445.3,-63.9 452.3,-63.9"/>
</g>
<!-- f2 -->
<g id="node4" class="node">
<title>f2</title>
<polygon fill="white" stroke="none" points="588,-141.75 534,-141.75 534,-105.75 588,-105.75 588,-141.75"/>
<text text-anchor="middle" x="561" y="-116.75" font-family="HackNerdFont" font-size="20.00">f</text>
</g>
<!-- by2b1 -->
<g id="node16" class="node">
<title>by2b1</title>
<polygon fill="white" stroke="white" points="533,-52 479,-52 479,-16 533,-16 533,-52"/>
<text text-anchor="middle" x="506" y="-27" font-family="HackNerdFont" font-size="20.00">0</text>
</g>
<!-- f2&#45;&gt;by2b1 -->
<g id="edge9" class="edge">
<title>f2&#45;&gt;by2b1</title>
<path fill="none" stroke="black" d="M552,-105.95C552,-85.88 552,-56 552,-56 552,-56 519.5,-56 519.5,-56 519.5,-56 519.5,-55.62 519.5,-55.62"/>
<polygon fill="black" stroke="black" points="523,-63.68 519.5,-53.68 516,-63.68 523,-63.68"/>
</g>
<!-- by2b2 -->
<g id="node17" class="node">
<title>by2b2</title>
<polygon fill="white" stroke="white" points="588,-52 534,-52 534,-16 588,-16 588,-52"/>
<text text-anchor="middle" x="561" y="-27" font-family="HackNerdFont" font-size="20.00">0</text>
</g>
<!-- f2&#45;&gt;by2b2 -->
<g id="edge10" class="edge">
<title>f2&#45;&gt;by2b2</title>
<path fill="none" stroke="black" d="M570,-106.02C570,-106.02 570,-63.82 570,-63.82"/>
<polygon fill="black" stroke="black" points="573.5,-63.82 570,-53.82 566.5,-63.82 573.5,-63.82"/>
</g>
<!-- b -->
<g id="node5" class="node">
<title>b</title>
<polygon fill="white" stroke="none" points="643,-141.75 589,-141.75 589,-105.75 643,-105.75 643,-141.75"/>
<text text-anchor="middle" x="616" y="-116.75" font-family="HackNerdFont" font-size="20.00">b</text>
</g>
<!-- by2b3 -->
<g id="node18" class="node">
<title>by2b3</title>
<polygon fill="white" stroke="white" points="643,-52 589,-52 589,-16 643,-16 643,-52"/>
<text text-anchor="middle" x="616" y="-27" font-family="HackNerdFont" font-size="20.00">1</text>
</g>
<!-- b&#45;&gt;by2b3 -->
<g id="edge11" class="edge">
<title>b&#45;&gt;by2b3</title>
<path fill="none" stroke="black" d="M602.5,-106.02C602.5,-106.02 602.5,-63.82 602.5,-63.82"/>
<polygon fill="black" stroke="black" points="606,-63.82 602.5,-53.82 599,-63.82 606,-63.82"/>
</g>
<!-- by2b4 -->
<g id="node19" class="node">
<title>by2b4</title>
<polygon fill="white" stroke="white" points="698,-52 644,-52 644,-16 698,-16 698,-52"/>
<text text-anchor="middle" x="671" y="-27" font-family="HackNerdFont" font-size="20.00">0</text>
</g>
<!-- b&#45;&gt;by2b4 -->
<g id="edge12" class="edge">
<title>b&#45;&gt;by2b4</title>
<path fill="none" stroke="black" d="M616,-105.99C616,-87.13 616,-60 616,-60 616,-60 654.8,-60 654.8,-60 654.8,-60 654.8,-59.23 654.8,-59.23"/>
<polygon fill="black" stroke="black" points="658.3,-63.85 654.8,-53.85 651.3,-63.85 658.3,-63.85"/>
</g>
<!-- by2b5 -->
<g id="node20" class="node">
<title>by2b5</title>
<polygon fill="white" stroke="white" points="753,-52 699,-52 699,-16 753,-16 753,-52"/>
<text text-anchor="middle" x="726" y="-27" font-family="HackNerdFont" font-size="20.00">0</text>
</g>
<!-- b&#45;&gt;by2b5 -->
<g id="edge13" class="edge">
<title>b&#45;&gt;by2b5</title>
<path fill="none" stroke="black" d="M629.5,-105.82C629.5,-89.86 629.5,-69 629.5,-69 629.5,-69 726,-69 726,-69 726,-69 726,-63.83 726,-63.83"/>
<polygon fill="black" stroke="black" points="729.5,-63.83 726,-53.83 722.5,-63.83 729.5,-63.83"/>
</g>
<!-- i -->
<g id="node6" class="node">
<title>i</title>
<polygon fill="white" stroke="none" points="698,-141.75 644,-141.75 644,-105.75 698,-105.75 698,-141.75"/>
<text text-anchor="middle" x="671" y="-116.75" font-family="HackNerdFont" font-size="20.00">i</text>
</g>
<!-- by2b6 -->
<g id="node21" class="node">
<title>by2b6</title>
<polygon fill="white" stroke="white" points="808,-52 754,-52 754,-16 808,-16 808,-52"/>
<text text-anchor="middle" x="781" y="-27" font-family="HackNerdFont" font-size="20.00">0</text>
</g>
<!-- i&#45;&gt;by2b6 -->
<g id="edge14" class="edge">
<title>i&#45;&gt;by2b6</title>
<path fill="none" stroke="black" d="M665.6,-105.79C665.6,-91.54 665.6,-74 665.6,-74 665.6,-74 781,-74 781,-74 781,-74 781,-63.64 781,-63.64"/>
<polygon fill="black" stroke="black" points="784.5,-63.64 781,-53.64 777.5,-63.64 784.5,-63.64"/>
</g>
<!-- by2b7 -->
<g id="node22" class="node">
<title>by2b7</title>
<polygon fill="white" stroke="white" points="863,-52 809,-52 809,-16 863,-16 863,-52"/>
<text text-anchor="middle" x="836" y="-27" font-family="HackNerdFont" font-size="20.00">1</text>
</g>
<!-- i&#45;&gt;by2b7 -->
<g id="edge15" class="edge">
<title>i&#45;&gt;by2b7</title>
<path fill="none" stroke="black" d="M676.4,-105.81C676.4,-96.48 676.4,-87 676.4,-87 676.4,-87 836,-87 836,-87 836,-87 836,-63.75 836,-63.75"/>
<polygon fill="black" stroke="black" points="839.5,-63.75 836,-53.75 832.5,-63.75 839.5,-63.75"/>
</g>
<!-- by2b8 -->
<g id="node23" class="node">
<title>by2b8</title>
<polygon fill="white" stroke="white" points="918,-52 864,-52 864,-16 918,-16 918,-52"/>
<text text-anchor="middle" x="891" y="-27" font-family="HackNerdFont" font-size="20.00">0</text>
</g>
<!-- i&#45;&gt;by2b8 -->
<g id="edge16" class="edge">
<title>i&#45;&gt;by2b8</title>
<path fill="none" stroke="black" d="M687.2,-106.02C687.2,-100.58 687.2,-96 687.2,-96 687.2,-96 891,-96 891,-96 891,-96 891,-63.78 891,-63.78"/>
<polygon fill="black" stroke="black" points="894.5,-63.78 891,-53.78 887.5,-63.78 894.5,-63.78"/>
</g>
<!-- t -->
<g id="node7" class="node">
<title>t</title>
<polygon fill="white" stroke="none" points="753,-141.75 699,-141.75 699,-105.75 753,-105.75 753,-141.75"/>
<text text-anchor="middle" x="726" y="-116.75" font-family="HackNerdFont" font-size="20.00">t</text>
</g>
<!-- by3b1 -->
<g id="node24" class="node">
<title>by3b1</title>
<polygon fill="white" stroke="white" points="996,-52 942,-52 942,-16 996,-16 996,-52"/>
<text text-anchor="middle" x="969" y="-27" font-family="HackNerdFont" font-size="20.00">0</text>
</g>
<!-- t&#45;&gt;by3b1 -->
<g id="edge17" class="edge">
<title>t&#45;&gt;by3b1</title>
<path fill="none" stroke="black" d="M752.93,-114C816.2,-114 969,-114 969,-114 969,-114 969,-63.67 969,-63.67"/>
<polygon fill="black" stroke="black" points="972.5,-63.67 969,-53.67 965.5,-63.67 972.5,-63.67"/>
</g>
<!-- by3b2 -->
<g id="node25" class="node">
<title>by3b2</title>
<polygon fill="white" stroke="white" points="1051,-52 997,-52 997,-16 1051,-16 1051,-52"/>
<text text-anchor="middle" x="1024" y="-27" font-family="HackNerdFont" font-size="20.00">1</text>
</g>
<!-- t&#45;&gt;by3b2 -->
<g id="edge18" class="edge">
<title>t&#45;&gt;by3b2</title>
<path fill="none" stroke="black" d="M752.97,-123C826.33,-123 1024,-123 1024,-123 1024,-123 1024,-63.95 1024,-63.95"/>
<polygon fill="black" stroke="black" points="1027.5,-63.95 1024,-53.95 1020.5,-63.95 1027.5,-63.95"/>
</g>
<!-- by3b3 -->
<g id="node26" class="node">
<title>by3b3</title>
<polygon fill="white" stroke="white" points="1106,-52 1052,-52 1052,-16 1106,-16 1106,-52"/>
<text text-anchor="middle" x="1079" y="-27" font-family="HackNerdFont" font-size="20.00">1</text>
</g>
<!-- t&#45;&gt;by3b3 -->
<g id="edge19" class="edge">
<title>t&#45;&gt;by3b3</title>
<path fill="none" stroke="black" d="M752.82,-132C835.2,-132 1079,-132 1079,-132 1079,-132 1079,-63.95 1079,-63.95"/>
<polygon fill="black" stroke="black" points="1082.5,-63.95 1079,-53.95 1075.5,-63.95 1082.5,-63.95"/>
</g>
<!-- by3b4 -->
<g id="node27" class="node">
<title>by3b4</title>
<polygon fill="white" stroke="white" points="1161,-52 1107,-52 1107,-16 1161,-16 1161,-52"/>
<text text-anchor="middle" x="1134" y="-27" font-family="HackNerdFont" font-size="20.00">_</text>
</g>
<!-- by3b5 -->
<g id="node28" class="node">
<title>by3b5</title>
<polygon fill="white" stroke="white" points="1216,-52 1162,-52 1162,-16 1216,-16 1216,-52"/>
<text text-anchor="middle" x="1189" y="-27" font-family="HackNerdFont" font-size="20.00">_</text>
</g>
<!-- by3b6 -->
<g id="node29" class="node">
<title>by3b6</title>
<polygon fill="white" stroke="white" points="1271,-52 1217,-52 1217,-16 1271,-16 1271,-52"/>
<text text-anchor="middle" x="1244" y="-27" font-family="HackNerdFont" font-size="20.00">_</text>
</g>
<!-- by3b7 -->
<g id="node30" class="node">
<title>by3b7</title>
<polygon fill="white" stroke="white" points="1326,-52 1272,-52 1272,-16 1326,-16 1326,-52"/>
<text text-anchor="middle" x="1299" y="-27" font-family="HackNerdFont" font-size="20.00">_</text>
</g>
<!-- by3b8 -->
<g id="node31" class="node">
<title>by3b8</title>
<polygon fill="white" stroke="white" points="1381,-52 1327,-52 1327,-16 1381,-16 1381,-52"/>
<text text-anchor="middle" x="1354" y="-27" font-family="HackNerdFont" font-size="20.00">_</text>
</g>
</g>
</svg>
