<?xml version="1.0" encoding="UTF-8" standalone="no"?>
<!DOCTYPE svg PUBLIC "-//W3C//DTD SVG 1.1//EN"
 "http://www.w3.org/Graphics/SVG/1.1/DTD/svg11.dtd">
<!-- Generated by graphviz version 10.0.1 (0)
 -->
<!-- Title: output_string Pages: 1 -->
<svg width="1421pt" height="212pt"
 viewBox="0.00 0.00 1421.00 211.50" xmlns="http://www.w3.org/2000/svg" xmlns:xlink="http://www.w3.org/1999/xlink">
<g id="graph0" class="graph" transform="scale(1 1) rotate(0) translate(4 207.5)">
<title>output_string</title>
<g id="clust1" class="cluster">
<title>cluster_output</title>
<polygon fill="lightblue" stroke="lightblue" points="8,-8 8,-195.5 1405,-195.5 1405,-8 8,-8"/>
</g>
<g id="clust2" class="cluster">
<title>cluster_input</title>
<polygon fill="lightblue" stroke="lightblue" points="369,-105.75 369,-187.5 769,-187.5 769,-105.75 369,-105.75"/>
<text text-anchor="middle" x="569" y="-166.4" font-family="HackNerdFont" font-size="18.00">Input String</text>
</g>
<g id="clust3" class="cluster">
<title>cluster_byte1</title>
<polygon fill="#9ac0cd" stroke="#9ac0cd" points="16,-16 16,-97.75 471,-97.75 471,-16 16,-16"/>
<text text-anchor="middle" x="243.5" y="-76.65" font-family="HackNerdFont" font-size="18.00">byte 1</text>
</g>
<g id="clust4" class="cluster">
<title>cluster_byte2</title>
<polygon fill="#9ac0cd" stroke="#9ac0cd" points="479,-16 479,-97.75 934,-97.75 934,-16 479,-16"/>
<text text-anchor="middle" x="706.5" y="-76.65" font-family="HackNerdFont" font-size="18.00">byte 2</text>
</g>
<g id="clust5" class="cluster">
<title>cluster_byte3</title>
<polygon fill="#9ac0cd" stroke="#9ac0cd" points="942,-16 942,-97.75 1397,-97.75 1397,-16 942,-16"/>
<text text-anchor="middle" x="1169.5" y="-76.65" font-family="HackNerdFont" font-size="18.00">byte 3</text>
</g>
<!-- h -->
<g id="node1" class="node">
<title>h</title>
<polygon fill="white" stroke="none" points="431,-149.75 377,-149.75 377,-113.75 431,-113.75 431,-149.75"/>
<text text-anchor="middle" x="404" y="-124.75" font-family="HackNerdFont" font-size="20.00">h</text>
</g>
<!-- by1b1 -->
<g id="node8" class="node">
<title>by1b1</title>
<polygon fill="white" stroke="white" points="78,-60 24,-60 24,-24 78,-24 78,-60"/>
<text text-anchor="middle" x="51" y="-35" font-family="HackNerdFont" font-size="20.00">1</text>
</g>
<!-- h&#45;&gt;by1b1 -->
<g id="edge1" class="edge">
<title>h&#45;&gt;by1b1</title>
<path fill="none" stroke="black" d="M377.18,-140C294.8,-140 51,-140 51,-140 51,-140 51,-71.95 51,-71.95"/>
<polygon fill="black" stroke="black" points="54.5,-71.95 51,-61.95 47.5,-71.95 54.5,-71.95"/>
</g>
<!-- by1b2 -->
<g id="node9" class="node">
<title>by1b2</title>
<polygon fill="white" stroke="white" points="133,-60 79,-60 79,-24 133,-24 133,-60"/>
<text text-anchor="middle" x="106" y="-35" font-family="HackNerdFont" font-size="20.00">0</text>
</g>
<!-- h&#45;&gt;by1b2 -->
<g id="edge2" class="edge">
<title>h&#45;&gt;by1b2</title>
<path fill="none" stroke="black" d="M377.03,-131C303.67,-131 106,-131 106,-131 106,-131 106,-71.95 106,-71.95"/>
<polygon fill="black" stroke="black" points="109.5,-71.95 106,-61.95 102.5,-71.95 109.5,-71.95"/>
</g>
<!-- by1b3 -->
<g id="node10" class="node">
<title>by1b3</title>
<polygon fill="white" stroke="white" points="188,-60 134,-60 134,-24 188,-24 188,-60"/>
<text text-anchor="middle" x="161" y="-35" font-family="HackNerdFont" font-size="20.00">1</text>
</g>
<!-- h&#45;&gt;by1b3 -->
<g id="edge3" class="edge">
<title>h&#45;&gt;by1b3</title>
<path fill="none" stroke="black" d="M377.07,-122C313.8,-122 161,-122 161,-122 161,-122 161,-71.67 161,-71.67"/>
<polygon fill="black" stroke="black" points="164.5,-71.67 161,-61.67 157.5,-71.67 164.5,-71.67"/>
</g>
<!-- u -->
<g id="node2" class="node">
<title>u</title>
<polygon fill="white" stroke="none" points="486,-149.75 432,-149.75 432,-113.75 486,-113.75 486,-149.75"/>
<text text-anchor="middle" x="459" y="-124.75" font-family="HackNerdFont" font-size="20.00">u</text>
</g>
<!-- by1b4 -->
<g id="node11" class="node">
<title>by1b4</title>
<polygon fill="white" stroke="white" points="243,-60 189,-60 189,-24 243,-24 243,-60"/>
<text text-anchor="middle" x="216" y="-35" font-family="HackNerdFont" font-size="20.00">1</text>
</g>
<!-- u&#45;&gt;by1b4 -->
<g id="edge4" class="edge">
<title>u&#45;&gt;by1b4</title>
<path fill="none" stroke="black" d="M438.2,-113.82C438.2,-111.01 438.2,-109 438.2,-109 438.2,-109 216,-109 216,-109 216,-109 216,-71.82 216,-71.82"/>
<polygon fill="black" stroke="black" points="219.5,-71.82 216,-61.82 212.5,-71.82 219.5,-71.82"/>
</g>
<!-- by1b5 -->
<g id="node12" class="node">
<title>by1b5</title>
<polygon fill="white" stroke="white" points="298,-60 244,-60 244,-24 298,-24 298,-60"/>
<text text-anchor="middle" x="271" y="-35" font-family="HackNerdFont" font-size="20.00">1</text>
</g>
<!-- u&#45;&gt;by1b5 -->
<g id="edge5" class="edge">
<title>u&#45;&gt;by1b5</title>
<path fill="none" stroke="black" d="M444.4,-114.02C444.4,-106.75 444.4,-100 444.4,-100 444.4,-100 271,-100 271,-100 271,-100 271,-71.87 271,-71.87"/>
<polygon fill="black" stroke="black" points="274.5,-71.87 271,-61.87 267.5,-71.87 274.5,-71.87"/>
</g>
<!-- by1b6 -->
<g id="node13" class="node">
<title>by1b6</title>
<polygon fill="white" stroke="white" points="353,-60 299,-60 299,-24 353,-24 353,-60"/>
<text text-anchor="middle" x="326" y="-35" font-family="HackNerdFont" font-size="20.00">1</text>
</g>
<!-- u&#45;&gt;by1b6 -->
<g id="edge6" class="edge">
<title>u&#45;&gt;by1b6</title>
<path fill="none" stroke="black" d="M450.6,-113.76C450.6,-102.84 450.6,-91 450.6,-91 450.6,-91 326,-91 326,-91 326,-91 326,-71.76 326,-71.76"/>
<polygon fill="black" stroke="black" points="329.5,-71.76 326,-61.76 322.5,-71.76 329.5,-71.76"/>
</g>
<!-- f -->
<g id="node3" class="node">
<title>f</title>
<polygon fill="white" stroke="none" points="541,-149.75 487,-149.75 487,-113.75 541,-113.75 541,-149.75"/>
<text text-anchor="middle" x="514" y="-124.75" font-family="HackNerdFont" font-size="20.00">f</text>
</g>
<!-- by1b7 -->
<g id="node14" class="node">
<title>by1b7</title>
<polygon fill="white" stroke="white" points="408,-60 354,-60 354,-24 408,-24 408,-60"/>
<text text-anchor="middle" x="381" y="-35" font-family="HackNerdFont" font-size="20.00">0</text>
</g>
<!-- f&#45;&gt;by1b7 -->
<g id="edge7" class="edge">
<title>f&#45;&gt;by1b7</title>
<path fill="none" stroke="black" d="M500.5,-113.93C500.5,-101.09 500.5,-86 500.5,-86 500.5,-86 392.5,-86 392.5,-86 392.5,-86 392.5,-71.92 392.5,-71.92"/>
<polygon fill="black" stroke="black" points="396,-71.92 392.5,-61.92 389,-71.92 396,-71.92"/>
</g>
<!-- by1b8 -->
<g id="node15" class="node">
<title>by1b8</title>
<polygon fill="white" stroke="white" points="463,-60 409,-60 409,-24 463,-24 463,-60"/>
<text text-anchor="middle" x="436" y="-35" font-family="HackNerdFont" font-size="20.00">0</text>
</g>
<!-- f&#45;&gt;by1b8 -->
<g id="edge8" class="edge">
<title>f&#45;&gt;by1b8</title>
<path fill="none" stroke="black" d="M514,-113.8C514,-96.53 514,-73 514,-73 514,-73 456.8,-73 456.8,-73 456.8,-73 456.8,-71.74 456.8,-71.74"/>
<polygon fill="black" stroke="black" points="460.3,-71.9 456.8,-61.9 453.3,-71.9 460.3,-71.9"/>
</g>
<!-- f2 -->
<g id="node4" class="node">
<title>f2</title>
<polygon fill="white" stroke="none" points="596,-149.75 542,-149.75 542,-113.75 596,-113.75 596,-149.75"/>
<text text-anchor="middle" x="569" y="-124.75" font-family="HackNerdFont" font-size="20.00">f</text>
</g>
<!-- by2b1 -->
<g id="node16" class="node">
<title>by2b1</title>
<polygon fill="white" stroke="white" points="541,-60 487,-60 487,-24 541,-24 541,-60"/>
<text text-anchor="middle" x="514" y="-35" font-family="HackNerdFont" font-size="20.00">0</text>
</g>
<!-- f2&#45;&gt;by2b1 -->
<g id="edge9" class="edge">
<title>f2&#45;&gt;by2b1</title>
<path fill="none" stroke="black" d="M560,-113.95C560,-93.88 560,-64 560,-64 560,-64 527.5,-64 527.5,-64 527.5,-64 527.5,-63.62 527.5,-63.62"/>
<polygon fill="black" stroke="black" points="531,-71.68 527.5,-61.68 524,-71.68 531,-71.68"/>
</g>
<!-- by2b2 -->
<g id="node17" class="node">
<title>by2b2</title>
<polygon fill="white" stroke="white" points="596,-60 542,-60 542,-24 596,-24 596,-60"/>
<text text-anchor="middle" x="569" y="-35" font-family="HackNerdFont" font-size="20.00">0</text>
</g>
<!-- f2&#45;&gt;by2b2 -->
<g id="edge10" class="edge">
<title>f2&#45;&gt;by2b2</title>
<path fill="none" stroke="black" d="M578,-114.02C578,-114.02 578,-71.82 578,-71.82"/>
<polygon fill="black" stroke="black" points="581.5,-71.82 578,-61.82 574.5,-71.82 581.5,-71.82"/>
</g>
<!-- b -->
<g id="node5" class="node">
<title>b</title>
<polygon fill="white" stroke="none" points="651,-149.75 597,-149.75 597,-113.75 651,-113.75 651,-149.75"/>
<text text-anchor="middle" x="624" y="-124.75" font-family="HackNerdFont" font-size="20.00">b</text>
</g>
<!-- by2b3 -->
<g id="node18" class="node">
<title>by2b3</title>
<polygon fill="white" stroke="white" points="651,-60 597,-60 597,-24 651,-24 651,-60"/>
<text text-anchor="middle" x="624" y="-35" font-family="HackNerdFont" font-size="20.00">1</text>
</g>
<!-- b&#45;&gt;by2b3 -->
<g id="edge11" class="edge">
<title>b&#45;&gt;by2b3</title>
<path fill="none" stroke="black" d="M610.5,-114.02C610.5,-114.02 610.5,-71.82 610.5,-71.82"/>
<polygon fill="black" stroke="black" points="614,-71.82 610.5,-61.82 607,-71.82 614,-71.82"/>
</g>
<!-- by2b4 -->
<g id="node19" class="node">
<title>by2b4</title>
<polygon fill="white" stroke="white" points="706,-60 652,-60 652,-24 706,-24 706,-60"/>
<text text-anchor="middle" x="679" y="-35" font-family="HackNerdFont" font-size="20.00">0</text>
</g>
<!-- b&#45;&gt;by2b4 -->
<g id="edge12" class="edge">
<title>b&#45;&gt;by2b4</title>
<path fill="none" stroke="black" d="M624,-113.99C624,-95.13 624,-68 624,-68 624,-68 662.8,-68 662.8,-68 662.8,-68 662.8,-67.23 662.8,-67.23"/>
<polygon fill="black" stroke="black" points="666.3,-71.85 662.8,-61.85 659.3,-71.85 666.3,-71.85"/>
</g>
<!-- by2b5 -->
<g id="node20" class="node">
<title>by2b5</title>
<polygon fill="white" stroke="white" points="761,-60 707,-60 707,-24 761,-24 761,-60"/>
<text text-anchor="middle" x="734" y="-35" font-family="HackNerdFont" font-size="20.00">0</text>
</g>
<!-- b&#45;&gt;by2b5 -->
<g id="edge13" class="edge">
<title>b&#45;&gt;by2b5</title>
<path fill="none" stroke="black" d="M637.5,-113.82C637.5,-97.86 637.5,-77 637.5,-77 637.5,-77 734,-77 734,-77 734,-77 734,-71.83 734,-71.83"/>
<polygon fill="black" stroke="black" points="737.5,-71.83 734,-61.83 730.5,-71.83 737.5,-71.83"/>
</g>
<!-- i -->
<g id="node6" class="node">
<title>i</title>
<polygon fill="white" stroke="none" points="706,-149.75 652,-149.75 652,-113.75 706,-113.75 706,-149.75"/>
<text text-anchor="middle" x="679" y="-124.75" font-family="HackNerdFont" font-size="20.00">i</text>
</g>
<!-- by2b6 -->
<g id="node21" class="node">
<title>by2b6</title>
<polygon fill="white" stroke="white" points="816,-60 762,-60 762,-24 816,-24 816,-60"/>
<text text-anchor="middle" x="789" y="-35" font-family="HackNerdFont" font-size="20.00">0</text>
</g>
<!-- i&#45;&gt;by2b6 -->
<g id="edge14" class="edge">
<title>i&#45;&gt;by2b6</title>
<path fill="none" stroke="black" d="M673.6,-113.79C673.6,-99.54 673.6,-82 673.6,-82 673.6,-82 789,-82 789,-82 789,-82 789,-71.64 789,-71.64"/>
<polygon fill="black" stroke="black" points="792.5,-71.64 789,-61.64 785.5,-71.64 792.5,-71.64"/>
</g>
<!-- by2b7 -->
<g id="node22" class="node">
<title>by2b7</title>
<polygon fill="white" stroke="white" points="871,-60 817,-60 817,-24 871,-24 871,-60"/>
<text text-anchor="middle" x="844" y="-35" font-family="HackNerdFont" font-size="20.00">1</text>
</g>
<!-- i&#45;&gt;by2b7 -->
<g id="edge15" class="edge">
<title>i&#45;&gt;by2b7</title>
<path fill="none" stroke="black" d="M684.4,-113.81C684.4,-104.48 684.4,-95 684.4,-95 684.4,-95 844,-95 844,-95 844,-95 844,-71.75 844,-71.75"/>
<polygon fill="black" stroke="black" points="847.5,-71.75 844,-61.75 840.5,-71.75 847.5,-71.75"/>
</g>
<!-- by2b8 -->
<g id="node23" class="node">
<title>by2b8</title>
<polygon fill="white" stroke="white" points="926,-60 872,-60 872,-24 926,-24 926,-60"/>
<text text-anchor="middle" x="899" y="-35" font-family="HackNerdFont" font-size="20.00">0</text>
</g>
<!-- i&#45;&gt;by2b8 -->
<g id="edge16" class="edge">
<title>i&#45;&gt;by2b8</title>
<path fill="none" stroke="black" d="M695.2,-114.02C695.2,-108.58 695.2,-104 695.2,-104 695.2,-104 899,-104 899,-104 899,-104 899,-71.78 899,-71.78"/>
<polygon fill="black" stroke="black" points="902.5,-71.78 899,-61.78 895.5,-71.78 902.5,-71.78"/>
</g>
<!-- t -->
<g id="node7" class="node">
<title>t</title>
<polygon fill="white" stroke="none" points="761,-149.75 707,-149.75 707,-113.75 761,-113.75 761,-149.75"/>
<text text-anchor="middle" x="734" y="-124.75" font-family="HackNerdFont" font-size="20.00">t</text>
</g>
<!-- by3b1 -->
<g id="node24" class="node">
<title>by3b1</title>
<polygon fill="white" stroke="white" points="1004,-60 950,-60 950,-24 1004,-24 1004,-60"/>
<text text-anchor="middle" x="977" y="-35" font-family="HackNerdFont" font-size="20.00">0</text>
</g>
<!-- t&#45;&gt;by3b1 -->
<g id="edge17" class="edge">
<title>t&#45;&gt;by3b1</title>
<path fill="none" stroke="black" d="M760.93,-122C824.2,-122 977,-122 977,-122 977,-122 977,-71.67 977,-71.67"/>
<polygon fill="black" stroke="black" points="980.5,-71.67 977,-61.67 973.5,-71.67 980.5,-71.67"/>
</g>
<!-- by3b2 -->
<g id="node25" class="node">
<title>by3b2</title>
<polygon fill="white" stroke="white" points="1059,-60 1005,-60 1005,-24 1059,-24 1059,-60"/>
<text text-anchor="middle" x="1032" y="-35" font-family="HackNerdFont" font-size="20.00">1</text>
</g>
<!-- t&#45;&gt;by3b2 -->
<g id="edge18" class="edge">
<title>t&#45;&gt;by3b2</title>
<path fill="none" stroke="black" d="M760.97,-131C834.33,-131 1032,-131 1032,-131 1032,-131 1032,-71.95 1032,-71.95"/>
<polygon fill="black" stroke="black" points="1035.5,-71.95 1032,-61.95 1028.5,-71.95 1035.5,-71.95"/>
</g>
<!-- by3b3 -->
<g id="node26" class="node">
<title>by3b3</title>
<polygon fill="white" stroke="white" points="1114,-60 1060,-60 1060,-24 1114,-24 1114,-60"/>
<text text-anchor="middle" x="1087" y="-35" font-family="HackNerdFont" font-size="20.00">1</text>
</g>
<!-- t&#45;&gt;by3b3 -->
<g id="edge19" class="edge">
<title>t&#45;&gt;by3b3</title>
<path fill="none" stroke="black" d="M760.82,-140C843.2,-140 1087,-140 1087,-140 1087,-140 1087,-71.95 1087,-71.95"/>
<polygon fill="black" stroke="black" points="1090.5,-71.95 1087,-61.95 1083.5,-71.95 1090.5,-71.95"/>
</g>
<!-- by3b4 -->
<g id="node27" class="node">
<title>by3b4</title>
<polygon fill="white" stroke="white" points="1169,-60 1115,-60 1115,-24 1169,-24 1169,-60"/>
<text text-anchor="middle" x="1142" y="-35" font-family="HackNerdFont" font-size="20.00">_</text>
</g>
<!-- by3b5 -->
<g id="node28" class="node">
<title>by3b5</title>
<polygon fill="white" stroke="white" points="1224,-60 1170,-60 1170,-24 1224,-24 1224,-60"/>
<text text-anchor="middle" x="1197" y="-35" font-family="HackNerdFont" font-size="20.00">_</text>
</g>
<!-- by3b6 -->
<g id="node29" class="node">
<title>by3b6</title>
<polygon fill="white" stroke="white" points="1279,-60 1225,-60 1225,-24 1279,-24 1279,-60"/>
<text text-anchor="middle" x="1252" y="-35" font-family="HackNerdFont" font-size="20.00">_</text>
</g>
<!-- by3b7 -->
<g id="node30" class="node">
<title>by3b7</title>
<polygon fill="white" stroke="white" points="1334,-60 1280,-60 1280,-24 1334,-24 1334,-60"/>
<text text-anchor="middle" x="1307" y="-35" font-family="HackNerdFont" font-size="20.00">_</text>
</g>
<!-- by3b8 -->
<g id="node31" class="node">
<title>by3b8</title>
<polygon fill="white" stroke="white" points="1389,-60 1335,-60 1335,-24 1389,-24 1389,-60"/>
<text text-anchor="middle" x="1362" y="-35" font-family="HackNerdFont" font-size="20.00">_</text>
</g>
</g>
</svg>
