<?xml version="1.0" encoding="UTF-8" standalone="no"?>
<!DOCTYPE svg PUBLIC "-//W3C//DTD SVG 1.1//EN"
 "http://www.w3.org/Graphics/SVG/1.1/DTD/svg11.dtd">
<!-- Generated by graphviz version 10.0.1 (0)
 -->
<!-- Title: output_string Pages: 1 -->
<svg width="1607pt" height="434pt"
 viewBox="0.00 0.00 1607.00 433.50" xmlns="http://www.w3.org/2000/svg" xmlns:xlink="http://www.w3.org/1999/xlink">
<g id="graph0" class="graph" transform="scale(1 1) rotate(0) translate(4 429.5)">
<title>output_string</title>
<g id="clust1" class="cluster">
<title>cluster_output</title>
<polygon fill="lightblue" stroke="lightblue" points="8,-8 8,-417.5 1591,-417.5 1591,-8 8,-8"/>
</g>
<g id="clust2" class="cluster">
<title>cluster_input</title>
<polygon fill="lightblue" stroke="lightblue" points="433,-314.5 433,-409.5 888,-409.5 888,-314.5 433,-314.5"/>
<text text-anchor="middle" x="660.5" y="-380.8" font-family="HackNerdFont" font-size="26.00">Input String</text>
</g>
<g id="clust3" class="cluster">
<title>cluster_byte1</title>
<polygon fill="#68838b" stroke="#68838b" points="16,-16 16,-166.5 533,-166.5 533,-16 16,-16"/>
<text text-anchor="middle" x="274.5" y="-137.8" font-family="HackNerdFont" font-size="26.00">byte 1</text>
</g>
<g id="clust4" class="cluster">
<title>cluster_char1</title>
<polygon fill="#9ac0cd" stroke="#9ac0cd" points="24,-24 24,-119 204,-119 204,-24 24,-24"/>
<text text-anchor="middle" x="114" y="-90.3" font-family="HackNerdFont" font-size="26.00">h</text>
</g>
<g id="clust5" class="cluster">
<title>cluster_char2</title>
<polygon fill="#9ac0cd" stroke="#9ac0cd" points="212,-24 212,-119 392,-119 392,-24 212,-24"/>
<text text-anchor="middle" x="302" y="-90.3" font-family="HackNerdFont" font-size="26.00">u</text>
</g>
<g id="clust6" class="cluster">
<title>cluster_char3</title>
<polygon fill="#9ac0cd" stroke="#9ac0cd" points="400,-24 400,-119 525,-119 525,-24 400,-24"/>
<text text-anchor="middle" x="462.5" y="-90.3" font-family="HackNerdFont" font-size="26.00">f</text>
</g>
<g id="clust7" class="cluster">
<title>cluster_byte2</title>
<polygon fill="#68838b" stroke="#68838b" points="541,-16 541,-166.5 1058,-166.5 1058,-16 541,-16"/>
<text text-anchor="middle" x="799.5" y="-137.8" font-family="HackNerdFont" font-size="26.00">byte 2</text>
</g>
<g id="clust8" class="cluster">
<title>cluster_char4</title>
<polygon fill="#9ac0cd" stroke="#9ac0cd" points="549,-24 549,-119 674,-119 674,-24 549,-24"/>
<text text-anchor="middle" x="611.5" y="-90.3" font-family="HackNerdFont" font-size="26.00">f</text>
</g>
<g id="clust9" class="cluster">
<title>cluster_char5</title>
<polygon fill="#9ac0cd" stroke="#9ac0cd" points="682,-24 682,-119 862,-119 862,-24 682,-24"/>
<text text-anchor="middle" x="772" y="-90.3" font-family="HackNerdFont" font-size="26.00">b</text>
</g>
<g id="clust10" class="cluster">
<title>cluster_char6</title>
<polygon fill="#9ac0cd" stroke="#9ac0cd" points="870,-24 870,-119 1050,-119 1050,-24 870,-24"/>
<text text-anchor="middle" x="960" y="-90.3" font-family="HackNerdFont" font-size="26.00">i</text>
</g>
<g id="clust11" class="cluster">
<title>cluster_byte3</title>
<polygon fill="#68838b" stroke="#68838b" points="1066,-16 1066,-166.5 1583,-166.5 1583,-16 1066,-16"/>
<text text-anchor="middle" x="1324.5" y="-137.8" font-family="HackNerdFont" font-size="26.00">byte 3</text>
</g>
<g id="clust12" class="cluster">
<title>cluster_char7</title>
<polygon fill="#9ac0cd" stroke="#9ac0cd" points="1074,-24 1074,-119 1254,-119 1254,-24 1074,-24"/>
<text text-anchor="middle" x="1164" y="-90.3" font-family="HackNerdFont" font-size="26.00">t</text>
</g>
<g id="clust13" class="cluster">
<title>cluster_char8</title>
<polygon fill="#9ac0cd" stroke="#9ac0cd" points="1262,-24 1262,-119 1442,-119 1442,-24 1262,-24"/>
<text text-anchor="middle" x="1352" y="-90.3" font-family="HackNerdFont" font-size="26.00">\n</text>
</g>
<g id="clust14" class="cluster">
<title>cluster_char9</title>
<polygon fill="#9ac0cd" stroke="#9ac0cd" points="1450,-24 1450,-119 1575,-119 1575,-24 1450,-24"/>
<text text-anchor="middle" x="1512.5" y="-90.3" font-family="HackNerdFont" font-size="26.00">_</text>
</g>
<!-- h -->
<g id="node1" class="node">
<title>h</title>
<polygon fill="white" stroke="none" points="495,-362 441,-362 441,-322.5 495,-322.5 495,-362"/>
<text text-anchor="middle" x="468" y="-333.3" font-family="HackNerdFont" font-size="26.00">h</text>
</g>
<!-- by1b2 -->
<g id="node10" class="node">
<title>by1b2</title>
<polygon fill="white" stroke="white" points="141,-71.5 87,-71.5 87,-32 141,-32 141,-71.5"/>
<text text-anchor="middle" x="114" y="-42.8" font-family="HackNerdFont" font-size="26.00">0</text>
</g>
<!-- h&#45;&gt;by1b2 -->
<g id="edge1" class="edge">
<title>h&#45;&gt;by1b2</title>
<path fill="none" stroke="black" d="M441.1,-342C358.49,-342 114,-342 114,-342 114,-342 114,-205.06 114,-130.41"/>
<polygon fill="black" stroke="black" points="117.5,-130.51 114,-120.51 110.5,-130.51 117.5,-130.51"/>
</g>
<!-- u -->
<g id="node2" class="node">
<title>u</title>
<polygon fill="white" stroke="none" points="550,-362 496,-362 496,-322.5 550,-322.5 550,-362"/>
<text text-anchor="middle" x="523" y="-333.3" font-family="HackNerdFont" font-size="26.00">u</text>
</g>
<!-- by1b6 -->
<g id="node14" class="node">
<title>by1b6</title>
<polygon fill="white" stroke="white" points="384,-71.5 330,-71.5 330,-32 384,-32 384,-71.5"/>
<text text-anchor="middle" x="357" y="-42.8" font-family="HackNerdFont" font-size="26.00">1</text>
</g>
<!-- u&#45;&gt;by1b6 -->
<g id="edge2" class="edge">
<title>u&#45;&gt;by1b6</title>
<path fill="none" stroke="black" d="M506.5,-322.64C506.5,-292.44 506.5,-238 506.5,-238 506.5,-238 357,-238 357,-238 357,-238 357,-175.99 357,-130.46"/>
<polygon fill="black" stroke="black" points="360.5,-130.51 357,-120.51 353.5,-130.51 360.5,-130.51"/>
</g>
<!-- f -->
<g id="node3" class="node">
<title>f</title>
<polygon fill="white" stroke="none" points="605,-362 551,-362 551,-322.5 605,-322.5 605,-362"/>
<text text-anchor="middle" x="578" y="-333.3" font-family="HackNerdFont" font-size="26.00">f</text>
</g>
<!-- by1b7 -->
<g id="node15" class="node">
<title>by1b7</title>
<polygon fill="white" stroke="white" points="462,-71.5 408,-71.5 408,-32 462,-32 462,-71.5"/>
<text text-anchor="middle" x="435" y="-42.8" font-family="HackNerdFont" font-size="26.00">0</text>
</g>
<!-- f&#45;&gt;by1b7 -->
<g id="edge3" class="edge">
<title>f&#45;&gt;by1b7</title>
<path fill="none" stroke="black" d="M573,-322.56C573,-274.49 573,-155 573,-155 573,-155 451.5,-155 451.5,-155 451.5,-155 451.5,-143.78 451.5,-130.21"/>
<polygon fill="black" stroke="black" points="455,-130.51 451.5,-120.51 448,-130.51 455,-130.51"/>
</g>
<!-- f2 -->
<g id="node4" class="node">
<title>f2</title>
<polygon fill="white" stroke="none" points="660,-362 606,-362 606,-322.5 660,-322.5 660,-362"/>
<text text-anchor="middle" x="633" y="-333.3" font-family="HackNerdFont" font-size="26.00">f</text>
</g>
<!-- by2b1 -->
<g id="node17" class="node">
<title>by2b1</title>
<polygon fill="white" stroke="white" points="611,-71.5 557,-71.5 557,-32 611,-32 611,-71.5"/>
<text text-anchor="middle" x="584" y="-42.8" font-family="HackNerdFont" font-size="26.00">0</text>
</g>
<!-- f2&#45;&gt;by2b1 -->
<g id="edge4" class="edge">
<title>f2&#45;&gt;by2b1</title>
<path fill="none" stroke="black" d="M636,-322.7C636,-278.66 636,-172.25 636,-130.36"/>
<polygon fill="black" stroke="black" points="639.5,-130.51 636,-120.51 632.5,-130.51 639.5,-130.51"/>
</g>
<!-- b -->
<g id="node5" class="node">
<title>b</title>
<polygon fill="white" stroke="none" points="715,-362 661,-362 661,-322.5 715,-322.5 715,-362"/>
<text text-anchor="middle" x="688" y="-333.3" font-family="HackNerdFont" font-size="26.00">b</text>
</g>
<!-- by2b3 -->
<g id="node19" class="node">
<title>by2b3</title>
<polygon fill="white" stroke="white" points="744,-71.5 690,-71.5 690,-32 744,-32 744,-71.5"/>
<text text-anchor="middle" x="717" y="-42.8" font-family="HackNerdFont" font-size="26.00">1</text>
</g>
<!-- b&#45;&gt;by2b3 -->
<g id="edge5" class="edge">
<title>b&#45;&gt;by2b3</title>
<path fill="none" stroke="black" d="M702.5,-322.74C702.5,-322.74 702.5,-199.72 702.5,-130.1"/>
<polygon fill="black" stroke="black" points="706,-130.51 702.5,-120.51 699,-130.51 706,-130.51"/>
</g>
<!-- i -->
<g id="node6" class="node">
<title>i</title>
<polygon fill="white" stroke="none" points="770,-362 716,-362 716,-322.5 770,-322.5 770,-362"/>
<text text-anchor="middle" x="743" y="-333.3" font-family="HackNerdFont" font-size="26.00">i</text>
</g>
<!-- by2b6 -->
<g id="node22" class="node">
<title>by2b6</title>
<polygon fill="white" stroke="white" points="932,-71.5 878,-71.5 878,-32 932,-32 932,-71.5"/>
<text text-anchor="middle" x="905" y="-42.8" font-family="HackNerdFont" font-size="26.00">0</text>
</g>
<!-- i&#45;&gt;by2b6 -->
<g id="edge6" class="edge">
<title>i&#45;&gt;by2b6</title>
<path fill="none" stroke="black" d="M757.5,-322.66C757.5,-283.01 757.5,-197 757.5,-197 757.5,-197 906,-197 906,-197 906,-197 906,-161.54 906,-130.26"/>
<polygon fill="black" stroke="black" points="909.5,-130.51 906,-120.51 902.5,-130.51 909.5,-130.51"/>
</g>
<!-- t -->
<g id="node7" class="node">
<title>t</title>
<polygon fill="white" stroke="none" points="825,-362 771,-362 771,-322.5 825,-322.5 825,-362"/>
<text text-anchor="middle" x="798" y="-333.3" font-family="HackNerdFont" font-size="26.00">t</text>
</g>
<!-- by3b2 -->
<g id="node26" class="node">
<title>by3b2</title>
<polygon fill="white" stroke="white" points="1191,-71.5 1137,-71.5 1137,-32 1191,-32 1191,-71.5"/>
<text text-anchor="middle" x="1164" y="-42.8" font-family="HackNerdFont" font-size="26.00">1</text>
</g>
<!-- t&#45;&gt;by3b2 -->
<g id="edge7" class="edge">
<title>t&#45;&gt;by3b2</title>
<path fill="none" stroke="black" d="M812.5,-322.55C812.5,-304.32 812.5,-280 812.5,-280 812.5,-280 1164,-280 1164,-280 1164,-280 1164,-188.4 1164,-130.16"/>
<polygon fill="black" stroke="black" points="1167.5,-130.51 1164,-120.51 1160.5,-130.51 1167.5,-130.51"/>
</g>
<!-- newline -->
<g id="node8" class="node">
<title>newline</title>
<polygon fill="white" stroke="none" points="880,-362 826,-362 826,-322.5 880,-322.5 880,-362"/>
<text text-anchor="middle" x="853" y="-333.3" font-family="HackNerdFont" font-size="26.00">\n</text>
</g>
<!-- by3b4 -->
<g id="node28" class="node">
<title>by3b4</title>
<polygon fill="white" stroke="white" points="1324,-71.5 1270,-71.5 1270,-32 1324,-32 1324,-71.5"/>
<text text-anchor="middle" x="1297" y="-42.8" font-family="HackNerdFont" font-size="26.00">1</text>
</g>
<!-- newline&#45;&gt;by3b4 -->
<g id="edge8" class="edge">
<title>newline&#45;&gt;by3b4</title>
<path fill="none" stroke="black" d="M879.77,-342C975.77,-342 1297,-342 1297,-342 1297,-342 1297,-205.06 1297,-130.41"/>
<polygon fill="black" stroke="black" points="1300.5,-130.51 1297,-120.51 1293.5,-130.51 1300.5,-130.51"/>
</g>
<!-- by1b1 -->
<g id="node9" class="node">
<title>by1b1</title>
<polygon fill="white" stroke="white" points="86,-71.5 32,-71.5 32,-32 86,-32 86,-71.5"/>
<text text-anchor="middle" x="59" y="-42.8" font-family="HackNerdFont" font-size="26.00">1</text>
</g>
<!-- by1b3 -->
<g id="node11" class="node">
<title>by1b3</title>
<polygon fill="white" stroke="white" points="196,-71.5 142,-71.5 142,-32 196,-32 196,-71.5"/>
<text text-anchor="middle" x="169" y="-42.8" font-family="HackNerdFont" font-size="26.00">1</text>
</g>
<!-- by1b4 -->
<g id="node12" class="node">
<title>by1b4</title>
<polygon fill="white" stroke="white" points="274,-71.5 220,-71.5 220,-32 274,-32 274,-71.5"/>
<text text-anchor="middle" x="247" y="-42.8" font-family="HackNerdFont" font-size="26.00">1</text>
</g>
<!-- by1b5 -->
<g id="node13" class="node">
<title>by1b5</title>
<polygon fill="white" stroke="white" points="329,-71.5 275,-71.5 275,-32 329,-32 329,-71.5"/>
<text text-anchor="middle" x="302" y="-42.8" font-family="HackNerdFont" font-size="26.00">1</text>
</g>
<!-- by1b8 -->
<g id="node16" class="node">
<title>by1b8</title>
<polygon fill="white" stroke="white" points="517,-71.5 463,-71.5 463,-32 517,-32 517,-71.5"/>
<text text-anchor="middle" x="490" y="-42.8" font-family="HackNerdFont" font-size="26.00">0</text>
</g>
<!-- by2b2 -->
<g id="node18" class="node">
<title>by2b2</title>
<polygon fill="white" stroke="white" points="666,-71.5 612,-71.5 612,-32 666,-32 666,-71.5"/>
<text text-anchor="middle" x="639" y="-42.8" font-family="HackNerdFont" font-size="26.00">0</text>
</g>
<!-- by2b4 -->
<g id="node20" class="node">
<title>by2b4</title>
<polygon fill="white" stroke="white" points="799,-71.5 745,-71.5 745,-32 799,-32 799,-71.5"/>
<text text-anchor="middle" x="772" y="-42.8" font-family="HackNerdFont" font-size="26.00">0</text>
</g>
<!-- by2b5 -->
<g id="node21" class="node">
<title>by2b5</title>
<polygon fill="white" stroke="white" points="854,-71.5 800,-71.5 800,-32 854,-32 854,-71.5"/>
<text text-anchor="middle" x="827" y="-42.8" font-family="HackNerdFont" font-size="26.00">0</text>
</g>
<!-- by2b7 -->
<g id="node23" class="node">
<title>by2b7</title>
<polygon fill="white" stroke="white" points="987,-71.5 933,-71.5 933,-32 987,-32 987,-71.5"/>
<text text-anchor="middle" x="960" y="-42.8" font-family="HackNerdFont" font-size="26.00">1</text>
</g>
<!-- by2b8 -->
<g id="node24" class="node">
<title>by2b8</title>
<polygon fill="white" stroke="white" points="1042,-71.5 988,-71.5 988,-32 1042,-32 1042,-71.5"/>
<text text-anchor="middle" x="1015" y="-42.8" font-family="HackNerdFont" font-size="26.00">0</text>
</g>
<!-- by3b1 -->
<g id="node25" class="node">
<title>by3b1</title>
<polygon fill="white" stroke="white" points="1136,-71.5 1082,-71.5 1082,-32 1136,-32 1136,-71.5"/>
<text text-anchor="middle" x="1109" y="-42.8" font-family="HackNerdFont" font-size="26.00">0</text>
</g>
<!-- by3b3 -->
<g id="node27" class="node">
<title>by3b3</title>
<polygon fill="white" stroke="white" points="1246,-71.5 1192,-71.5 1192,-32 1246,-32 1246,-71.5"/>
<text text-anchor="middle" x="1219" y="-42.8" font-family="HackNerdFont" font-size="26.00">1</text>
</g>
<!-- by3b5 -->
<g id="node29" class="node">
<title>by3b5</title>
<polygon fill="white" stroke="white" points="1379,-71.5 1325,-71.5 1325,-32 1379,-32 1379,-71.5"/>
<text text-anchor="middle" x="1352" y="-42.8" font-family="HackNerdFont" font-size="26.00">1</text>
</g>
<!-- by3b6 -->
<g id="node30" class="node">
<title>by3b6</title>
<polygon fill="white" stroke="white" points="1434,-71.5 1380,-71.5 1380,-32 1434,-32 1434,-71.5"/>
<text text-anchor="middle" x="1407" y="-42.8" font-family="HackNerdFont" font-size="26.00">0</text>
</g>
<!-- by3b7 -->
<g id="node31" class="node">
<title>by3b7</title>
<polygon fill="white" stroke="white" points="1512,-71.5 1458,-71.5 1458,-32 1512,-32 1512,-71.5"/>
<text text-anchor="middle" x="1485" y="-42.8" font-family="HackNerdFont" font-size="26.00">_</text>
</g>
<!-- by3b8 -->
<g id="node32" class="node">
<title>by3b8</title>
<polygon fill="white" stroke="white" points="1567,-71.5 1513,-71.5 1513,-32 1567,-32 1567,-71.5"/>
<text text-anchor="middle" x="1540" y="-42.8" font-family="HackNerdFont" font-size="26.00">_</text>
</g>
</g>
</svg>
