<?xml version="1.0" encoding="UTF-8" standalone="no"?>
<!DOCTYPE svg PUBLIC "-//W3C//DTD SVG 1.1//EN"
 "http://www.w3.org/Graphics/SVG/1.1/DTD/svg11.dtd">
<!-- Generated by graphviz version 10.0.1 (0)
 -->
<!-- Title: huffman_tree Pages: 1 -->
<svg width="496pt" height="395pt"
 viewBox="0.00 0.00 496.00 394.99" xmlns="http://www.w3.org/2000/svg" xmlns:xlink="http://www.w3.org/1999/xlink">
<g id="graph0" class="graph" transform="scale(1 1) rotate(0) translate(4 390.99)">
<title>huffman_tree</title>
<g id="clust1" class="cluster">
<title>cluster_tree</title>
<polygon fill="lightblue" stroke="lightblue" points="8,-8 8,-378.99 480,-378.99 480,-8 8,-8"/>
<text text-anchor="middle" x="244" y="-363.59" font-family="HackNerdFont" font-size="12.00">Huffman Tree</text>
</g>
<!-- e -->
<g id="node1" class="node">
<title>e</title>
<ellipse fill="white" stroke="white" cx="156" cy="-330.74" rx="27" ry="18"/>
<text text-anchor="middle" x="156" y="-326.46" font-family="HackNerdFont" font-size="12.00">8</text>
</g>
<!-- fo1 -->
<g id="node2" class="node">
<title>fo1</title>
<ellipse fill="white" stroke="white" cx="115" cy="-242.24" rx="27" ry="18"/>
<text text-anchor="middle" x="115" y="-237.96" font-family="HackNerdFont" font-size="12.00">4</text>
</g>
<!-- e&#45;&gt;fo1 -->
<g id="edge1" class="edge">
<title>e&#45;&gt;fo1</title>
<path fill="none" stroke="black" d="M148.09,-313.06C142.31,-300.85 134.34,-284.04 127.67,-269.97"/>
<polygon fill="black" stroke="black" points="130.98,-268.77 123.53,-261.23 124.65,-271.77 130.98,-268.77"/>
<text text-anchor="middle" x="142.38" y="-281.44" font-family="Times,serif" font-size="14.00">0</text>
</g>
<!-- fo2 -->
<g id="node3" class="node">
<title>fo2</title>
<ellipse fill="white" stroke="white" cx="218" cy="-242.24" rx="27" ry="18"/>
<text text-anchor="middle" x="218" y="-237.96" font-family="HackNerdFont" font-size="12.00">4</text>
</g>
<!-- e&#45;&gt;fo2 -->
<g id="edge2" class="edge">
<title>e&#45;&gt;fo2</title>
<path fill="none" stroke="black" d="M167.08,-314.27C176.28,-301.44 189.54,-282.94 200.22,-268.04"/>
<polygon fill="black" stroke="black" points="202.94,-270.26 205.92,-260.09 197.25,-266.18 202.94,-270.26"/>
<text text-anchor="middle" x="195.38" y="-281.44" font-family="Times,serif" font-size="14.00">1</text>
</g>
<!-- t1 -->
<g id="node4" class="node">
<title>t1</title>
<ellipse fill="white" stroke="white" cx="43" cy="-145.93" rx="27" ry="25.81"/>
<text text-anchor="middle" x="43" y="-148.78" font-family="HackNerdFont" font-size="12.00">2</text>
<text text-anchor="middle" x="43" y="-134.53" font-family="HackNerdFont" font-size="12.00">f</text>
</g>
<!-- fo1&#45;&gt;t1 -->
<g id="edge3" class="edge">
<title>fo1&#45;&gt;t1</title>
<path fill="none" stroke="black" d="M103.11,-225.66C92.96,-212.37 78.08,-192.88 65.66,-176.61"/>
<polygon fill="black" stroke="black" points="68.46,-174.51 59.61,-168.68 62.89,-178.75 68.46,-174.51"/>
<text text-anchor="middle" x="90.38" y="-192.94" font-family="Times,serif" font-size="14.00">0</text>
</g>
<!-- t2 -->
<g id="node5" class="node">
<title>t2</title>
<ellipse fill="white" stroke="white" cx="115" cy="-145.93" rx="27" ry="18"/>
<text text-anchor="middle" x="115" y="-141.65" font-family="HackNerdFont" font-size="12.00">2</text>
</g>
<!-- fo1&#45;&gt;t2 -->
<g id="edge4" class="edge">
<title>fo1&#45;&gt;t2</title>
<path fill="none" stroke="black" d="M115,-223.94C115,-210.38 115,-191.22 115,-175.41"/>
<polygon fill="black" stroke="black" points="118.5,-175.63 115,-165.63 111.5,-175.63 118.5,-175.63"/>
<text text-anchor="middle" x="118.38" y="-192.94" font-family="Times,serif" font-size="14.00">1</text>
</g>
<!-- t3 -->
<g id="node6" class="node">
<title>t3</title>
<ellipse fill="white" stroke="white" cx="218" cy="-145.93" rx="27" ry="18"/>
<text text-anchor="middle" x="218" y="-141.65" font-family="HackNerdFont" font-size="12.00">2</text>
</g>
<!-- fo2&#45;&gt;t3 -->
<g id="edge5" class="edge">
<title>fo2&#45;&gt;t3</title>
<path fill="none" stroke="black" d="M218,-223.94C218,-210.38 218,-191.22 218,-175.41"/>
<polygon fill="black" stroke="black" points="221.5,-175.63 218,-165.63 214.5,-175.63 221.5,-175.63"/>
<text text-anchor="middle" x="221.38" y="-192.94" font-family="Times,serif" font-size="14.00">0</text>
</g>
<!-- t4 -->
<g id="node7" class="node">
<title>t4</title>
<ellipse fill="white" stroke="white" cx="352" cy="-145.93" rx="27" ry="18"/>
<text text-anchor="middle" x="352" y="-141.65" font-family="HackNerdFont" font-size="12.00">2</text>
</g>
<!-- fo2&#45;&gt;t4 -->
<g id="edge6" class="edge">
<title>fo2&#45;&gt;t4</title>
<path fill="none" stroke="black" d="M236.07,-228.52C258.85,-212.49 298.22,-184.78 324.68,-166.16"/>
<polygon fill="black" stroke="black" points="326.39,-169.24 332.55,-160.62 322.36,-163.51 326.39,-169.24"/>
<text text-anchor="middle" x="292.38" y="-192.94" font-family="Times,serif" font-size="14.00">1</text>
</g>
<!-- o1 -->
<g id="node8" class="node">
<title>o1</title>
<ellipse fill="white" stroke="white" cx="43" cy="-41.81" rx="27" ry="25.81"/>
<text text-anchor="middle" x="43" y="-44.66" font-family="HackNerdFont" font-size="12.00">1</text>
<text text-anchor="middle" x="43" y="-30.41" font-family="HackNerdFont" font-size="12.00">i</text>
</g>
<!-- t2&#45;&gt;o1 -->
<g id="edge7" class="edge">
<title>t2&#45;&gt;o1</title>
<path fill="none" stroke="black" d="M104.06,-129.42C93.55,-114.5 77.36,-91.54 64.29,-73.01"/>
<polygon fill="black" stroke="black" points="67.29,-71.18 58.66,-65.03 61.57,-75.22 67.29,-71.18"/>
<text text-anchor="middle" x="86.38" y="-88.82" font-family="Times,serif" font-size="14.00">0</text>
</g>
<!-- o2 -->
<g id="node9" class="node">
<title>o2</title>
<ellipse fill="white" stroke="white" cx="115" cy="-41.81" rx="27" ry="25.81"/>
<text text-anchor="middle" x="115" y="-44.66" font-family="HackNerdFont" font-size="12.00">1</text>
<text text-anchor="middle" x="115" y="-30.41" font-family="HackNerdFont" font-size="12.00">t</text>
</g>
<!-- t2&#45;&gt;o2 -->
<g id="edge8" class="edge">
<title>t2&#45;&gt;o2</title>
<path fill="none" stroke="black" d="M115,-127.61C115,-114.42 115,-95.8 115,-79.36"/>
<polygon fill="black" stroke="black" points="118.5,-79.4 115,-69.4 111.5,-79.4 118.5,-79.4"/>
<text text-anchor="middle" x="118.38" y="-88.82" font-family="Times,serif" font-size="14.00">1</text>
</g>
<!-- o3 -->
<g id="node10" class="node">
<title>o3</title>
<ellipse fill="white" stroke="white" cx="187" cy="-41.81" rx="27" ry="25.81"/>
<text text-anchor="middle" x="187" y="-44.66" font-family="HackNerdFont" font-size="12.00">1</text>
<text text-anchor="middle" x="187" y="-30.41" font-family="HackNerdFont" font-size="12.00">b</text>
</g>
<!-- t3&#45;&gt;o3 -->
<g id="edge9" class="edge">
<title>t3&#45;&gt;o3</title>
<path fill="none" stroke="black" d="M212.88,-128.07C208.73,-114.4 202.75,-94.7 197.58,-77.67"/>
<polygon fill="black" stroke="black" points="201.02,-76.96 194.77,-68.41 194.33,-78.99 201.02,-76.96"/>
<text text-anchor="middle" x="207.38" y="-88.82" font-family="Times,serif" font-size="14.00">0</text>
</g>
<!-- o4 -->
<g id="node11" class="node">
<title>o4</title>
<ellipse fill="white" stroke="white" cx="259" cy="-41.81" rx="27" ry="25.81"/>
<text text-anchor="middle" x="259" y="-44.66" font-family="HackNerdFont" font-size="12.00">1</text>
<text text-anchor="middle" x="259" y="-30.41" font-family="HackNerdFont" font-size="12.00">h</text>
</g>
<!-- t3&#45;&gt;o4 -->
<g id="edge10" class="edge">
<title>t3&#45;&gt;o4</title>
<path fill="none" stroke="black" d="M224.77,-128.07C230.38,-114.09 238.54,-93.78 245.48,-76.49"/>
<polygon fill="black" stroke="black" points="248.57,-78.18 249.05,-67.6 242.07,-75.57 248.57,-78.18"/>
<text text-anchor="middle" x="243.38" y="-88.82" font-family="Times,serif" font-size="14.00">1</text>
</g>
<!-- o5 -->
<g id="node12" class="node">
<title>o5</title>
<ellipse fill="white" stroke="white" cx="352" cy="-41.81" rx="48.44" ry="25.81"/>
<text text-anchor="middle" x="352" y="-44.66" font-family="HackNerdFont" font-size="12.00">1</text>
<text text-anchor="middle" x="352" y="-30.41" font-family="HackNerdFont" font-size="12.00">newline</text>
</g>
<!-- t4&#45;&gt;o5 -->
<g id="edge11" class="edge">
<title>t4&#45;&gt;o5</title>
<path fill="none" stroke="black" d="M352,-127.61C352,-114.42 352,-95.8 352,-79.36"/>
<polygon fill="black" stroke="black" points="355.5,-79.4 352,-69.4 348.5,-79.4 355.5,-79.4"/>
<text text-anchor="middle" x="355.38" y="-88.82" font-family="Times,serif" font-size="14.00">0</text>
</g>
<!-- o6 -->
<g id="node13" class="node">
<title>o6</title>
<ellipse fill="white" stroke="white" cx="445" cy="-41.81" rx="27" ry="25.81"/>
<text text-anchor="middle" x="445" y="-44.66" font-family="HackNerdFont" font-size="12.00">1</text>
<text text-anchor="middle" x="445" y="-30.41" font-family="HackNerdFont" font-size="12.00">u</text>
</g>
<!-- t4&#45;&gt;o6 -->
<g id="edge12" class="edge">
<title>t4&#45;&gt;o6</title>
<path fill="none" stroke="black" d="M365.32,-130.3C379.52,-114.71 402.33,-89.66 419.92,-70.35"/>
<polygon fill="black" stroke="black" points="422.41,-72.81 426.56,-63.06 417.24,-68.1 422.41,-72.81"/>
<text text-anchor="middle" x="407.38" y="-88.82" font-family="Times,serif" font-size="14.00">1</text>
</g>
</g>
</svg>
